<?xml version="1.0" encoding="UTF-8" standalone="no"?>
<!-- Created with Inkscape (http://www.inkscape.org/) -->

<svg
   width="210mm"
   height="297mm"
   viewBox="0 0 210 297"
   version="1.1"
   id="svg56860"
   inkscape:version="1.2.2 (732a01da63, 2022-12-09)"
   sodipodi:docname="desenho3.svg"
   xmlns:inkscape="http://www.inkscape.org/namespaces/inkscape"
   xmlns:sodipodi="http://sodipodi.sourceforge.net/DTD/sodipodi-0.dtd"
   xmlns="http://www.w3.org/2000/svg"
   xmlns:svg="http://www.w3.org/2000/svg">
  <sodipodi:namedview
     id="namedview56862"
     pagecolor="#505050"
     bordercolor="#eeeeee"
     borderopacity="1"
     inkscape:showpageshadow="0"
     inkscape:pageopacity="0"
     inkscape:pagecheckerboard="0"
     inkscape:deskcolor="#505050"
     inkscape:document-units="mm"
     showgrid="false"
     inkscape:zoom="0.35355339"
     inkscape:cx="-321.02648"
     inkscape:cy="476.58997"
     inkscape:window-width="1920"
     inkscape:window-height="991"
     inkscape:window-x="-9"
     inkscape:window-y="-9"
     inkscape:window-maximized="1"
     inkscape:current-layer="g21182" />
  <defs
     id="defs56857">
    <inkscape:path-effect
       effect="bspline"
       id="path-effect62136"
       is_visible="true"
       lpeversion="1"
       weight="33.333333"
       steps="2"
       helper_size="0"
       apply_no_weight="true"
       apply_with_weight="true"
       only_selected="false" />
    <inkscape:path-effect
       effect="bspline"
       id="path-effect62132"
       is_visible="true"
       lpeversion="1"
       weight="33.333333"
       steps="2"
       helper_size="0"
       apply_no_weight="true"
       apply_with_weight="true"
       only_selected="false" />
    <inkscape:path-effect
       effect="bspline"
       id="path-effect62123"
       is_visible="true"
       lpeversion="1"
       weight="33.333333"
       steps="2"
       helper_size="0"
       apply_no_weight="true"
       apply_with_weight="true"
       only_selected="false" />
    <inkscape:path-effect
       effect="bspline"
       id="path-effect61633"
       is_visible="true"
       lpeversion="1"
       weight="33.333333"
       steps="2"
       helper_size="0"
       apply_no_weight="true"
       apply_with_weight="true"
       only_selected="false" />
    <inkscape:path-effect
       effect="bspline"
       id="path-effect61521"
       is_visible="true"
       lpeversion="1"
       weight="33.333333"
       steps="2"
       helper_size="0"
       apply_no_weight="true"
       apply_with_weight="true"
       only_selected="false" />
    <inkscape:path-effect
       effect="bspline"
       id="path-effect6879"
       is_visible="true"
       lpeversion="1"
       weight="33.333333"
       steps="2"
       helper_size="0"
       apply_no_weight="true"
       apply_with_weight="true"
       only_selected="false" />
    <inkscape:path-effect
       effect="spiro"
       id="path-effect1514"
       is_visible="true"
       lpeversion="1" />
    <inkscape:path-effect
       effect="spiro"
       id="path-effect792"
       is_visible="true"
       lpeversion="1" />
    <inkscape:path-effect
       effect="bspline"
       id="path-effect5450"
       is_visible="true"
       lpeversion="1"
       weight="33.333333"
       steps="2"
       helper_size="0"
       apply_no_weight="true"
       apply_with_weight="true"
       only_selected="false" />
    <inkscape:path-effect
       effect="bspline"
       id="path-effect5454"
       is_visible="true"
       lpeversion="1"
       weight="33.333333"
       steps="2"
       helper_size="0"
       apply_no_weight="true"
       apply_with_weight="true"
       only_selected="false" />
    <inkscape:path-effect
       effect="bspline"
       id="path-effect5458"
       is_visible="true"
       lpeversion="1"
       weight="33.333333"
       steps="2"
       helper_size="0"
       apply_no_weight="true"
       apply_with_weight="true"
       only_selected="false" />
  </defs>
  <g
     inkscape:label="Camada 1"
     inkscape:groupmode="layer"
     id="layer1">
    <g
       id="g21182"
       transform="matrix(-0.96895845,-0.24722363,-0.24722363,0.96895845,268.14538,-13.435933)">
      <path
         style="fill:#000000;fill-opacity:1;stroke:#e88865;stroke-width:0;stroke-dasharray:none;stroke-opacity:1"
         d="m 84.468641,220.92798 c -2.281525,2.02167 -6.943531,5.27315 -10.10232,8.68449 -3.158789,3.41134 -4.814435,6.98247 -6.342419,8.65718 -1.527984,1.67471 -2.927918,1.45302 -2.521547,-0.71493 0.406371,-2.16795 2.618697,-6.28209 6.427955,-9.97841 3.809257,-3.69631 9.215339,-6.97464 11.968054,-8.21813 2.752715,-1.24349 2.851803,-0.45188 0.570277,1.5698 z"
         id="path62134"
         inkscape:path-effect="#path-effect62136"
         inkscape:original-d="m 86.849274,219.69807 c -4.6623,3.25138 -9.32431,6.50285 -13.986004,9.75442 -1.656027,3.57119 -3.311662,7.14232 -4.967052,10.71362 -1.400294,-0.22179 -2.800225,-0.4435 -4.19988,-0.66509 2.212111,-4.1144 4.424435,-8.22854 6.637123,-12.34268 5.405982,-3.27855 10.812063,-6.55688 16.218543,-9.83517 0.0988,0.79155 0.19788,1.58317 0.29727,2.3749 z"
         transform="translate(-1.191372e-5)" />
      <path
         style="fill:#000000;fill-opacity:1;stroke:#e88865;stroke-width:0;stroke-dasharray:none;stroke-opacity:1"
         d="m 94.496719,162.14843 c -3.623709,1.03297 -10.870809,3.09884 -16.317845,2.38089 -5.447036,-0.71795 -9.094107,-4.21941 -11.271992,-5.76827 -2.177885,-1.54886 -2.886246,-1.14529 -1.437272,1.00646 1.448974,2.15174 5.054917,6.05173 10.843877,7.09057 5.78896,1.03883 13.760826,-0.7836 17.759293,-2.21755 3.998468,-1.43394 4.023058,-2.4794 4.035355,-3.00224 0.0123,-0.52284 0.01229,-0.52284 -3.611416,0.51014 z"
         id="path62121"
         inkscape:path-effect="#path-effect62123"
         inkscape:original-d="m 98.120429,161.11545 c -7.247398,2.06603 -14.494496,4.1319 -21.741294,6.19759 -3.647522,-3.50144 -7.2946,-7.00289 -10.941449,-10.5046 -0.708691,0.40375 -1.417052,0.80732 -2.12513,1.21073 3.60578,3.90031 7.21172,7.8003 10.818028,11.70018 7.971885,-1.82234 15.943752,-3.64477 23.916078,-5.46742 0.02429,-1.04535 0.04887,-2.09081 0.07377,-3.13648 z" />
      <path
         style="fill:#008000;fill-opacity:1;stroke-width:0.303582"
         d="m 150.29711,119.86558 c -4.84022,-5.59478 -12.20415,-8.91714 -19.60171,-8.84364 -7.39756,0.0735 -14.69402,3.54151 -19.42213,9.23136 -3.88943,4.68058 -5.995,10.62513 -7.0365,16.62102 -1.52427,8.77517 -0.96911,18.03442 -4.355912,26.27193 -2.194127,5.33664 -5.905421,9.87972 -9.409199,14.4642 -3.503778,4.58447 -6.917101,9.43525 -8.34956,15.0247 -1.090624,4.25561 -0.965009,8.79375 0.194921,13.031 1.159929,4.23724 3.337514,8.17286 6.181348,11.52133 5.687667,6.69694 13.898202,10.92002 22.439822,12.97898 9.34165,2.25181 19.48101,2.0092 28.23599,-1.9515 4.3775,-1.98035 8.36014,-4.87302 11.46609,-8.53872 3.10594,-3.6657 5.31882,-8.1102 6.20262,-12.83282 1.19818,-6.40255 -0.0451,-12.9911 -1.50542,-19.339 -1.46031,-6.34789 -3.15259,-12.75794 -2.85049,-19.26463 0.37665,-8.11221 3.83069,-15.80538 4.56905,-23.8927 0.78664,-8.61606 -1.66316,-17.48948 -6.75892,-24.48151 z"
         id="path1510"
         inkscape:path-effect="#path-effect1514"
         inkscape:original-d="m 150.29711,119.86558 c 12.39727,-8.0427 -30.9818,-0.50561 -39.02384,0.38772 -8.04204,0.89334 -2.68024,9.47247 -7.0365,16.62102 -4.356262,7.14856 -3.01529,18.14041 -4.355912,26.27193 -1.34063,8.13152 -11.615461,23.23395 -17.758759,29.4889 -6.14331,6.25493 19.211071,20.37442 28.816091,37.53131 9.60503,17.1569 29.1515,-11.79528 45.9047,-23.32304 16.7532,-11.52775 -11.29706,-29.13873 -4.35591,-38.60363 7.92968,-10.81286 32.51225,-26.39178 4.56905,-23.8927 -11.30359,1.01096 -0.61562,-15.63457 -6.75892,-24.48151 z"
         sodipodi:nodetypes="cssssssssc" />
      <path
         style="fill:#dcff9c;fill-opacity:1;stroke-width:0.303173"
         d="m 140.22118,119.79285 c -3.83041,-4.97223 -9.73556,-8.29257 -15.97414,-8.98192 -6.23858,-0.68936 -12.7262,1.2616 -17.54979,5.27757 -3.02729,2.52043 -5.38645,5.78944 -7.086613,9.34282 -1.700167,3.55338 -2.757355,7.38999 -3.405012,11.27555 -1.182243,7.09276 -1.040977,14.4615 -3.369479,21.26466 -1.940219,5.66872 -5.488009,10.62097 -8.923197,15.52998 -3.435188,4.909 -6.858577,9.97733 -8.491621,15.74205 -2.420502,8.54448 -0.531372,18.0692 4.455842,25.41731 4.987214,7.34811 12.879415,12.52914 21.45894,14.82234 8.89587,2.37775 18.68467,1.69093 26.90499,-2.45837 8.22031,-4.14929 14.70236,-11.85049 16.81794,-20.81233 1.48385,-6.28577 0.8535,-12.86748 -0.10892,-19.25391 -0.96241,-6.38642 -2.25276,-12.77929 -2.06522,-19.2351 0.26295,-9.05164 3.42408,-17.85704 3.44187,-26.91248 0.0145,-7.39514 -2.13122,-14.78177 -6.10559,-21.01817 z"
         id="path790"
         inkscape:path-effect="#path-effect792"
         inkscape:original-d="m 140.22118,119.79285 c -9.6322,-3.57292 -25.48189,-4.59527 -33.52393,-3.70435 -8.042042,0.89093 -6.13536,13.48908 -10.491625,20.61837 -4.356262,7.12928 -4.503222,29.40576 -3.369479,21.26466 1.317919,-9.46363 -11.221166,25.08393 -17.414818,31.27203 -6.658678,6.6527 16.30976,23.12902 25.914782,40.23965 9.60503,17.11066 26.96973,-11.77401 43.72293,-23.2707 16.7532,-11.49667 -9.11528,-29.04963 -2.17414,-38.48901 7.92968,-10.78372 31.38507,-29.40484 3.44187,-26.91248 -11.30357,1.00823 -1.26542,-10.77413 -6.10559,-21.01817 z"
         sodipodi:nodetypes="cssssssssc" />
      <ellipse
         style="fill:#000000;fill-opacity:1;stroke-width:0.339401"
         id="ellipse1742"
         cx="156.48788"
         cy="109.5985"
         rx="2.0731452"
         ry="4.501687"
         transform="rotate(13.265106)" />
      <path
         style="fill:#000000;fill-opacity:1;stroke-width:0.339401"
         d="m 97.208147,129.62597 c 7.095123,0.92152 12.777423,3.10157 19.506503,3.43393 2.80729,-0.18909 25.56001,-0.15227 37.73021,-6.96509 l 1.02845,2.36634 c -4.11722,2.69271 -6.98397,2.99921 -9.90784,3.41364 l -33.49658,2.78398 c -4.3535,14.85338 -12.953937,12.52524 -11.64857,-1.87123 l -4.082007,-1.56398 z"
         id="path1928"
         sodipodi:nodetypes="ccccccccc" />
      <g
         id="g9900"
         style="fill:#c86464;fill-opacity:1"
         transform="matrix(1.2827773,0,0,1.2827773,-18.954331,-7.6403615)">
        <path
           style="fill:#c86464;fill-opacity:1;stroke-width:0.264583"
           d="m 91.596913,104.58008 c 17.467877,7.57386 27.512507,6.8971 34.779277,9.17509 6.80296,0.69447 10.13408,-0.12197 11.40747,-3.99541 -2.70283,-24.987213 -31.8708,-24.925757 -39.871841,-15.750608 -4.379822,5.022536 -7.159122,6.016658 -6.314906,10.570928 z"
           id="path1990"
           sodipodi:nodetypes="cccsc" />
        <path
           style="fill:#c86464;fill-opacity:1;stroke-width:0.264583"
           d="m 136.6484,107.29797 3.60168,-6.1875 c 4.81051,-1.920656 9.08732,-1.573073 13.20616,-0.5541 -5.9887,5.25324 -18.0099,7.25785 -13.40591,6.67437 3.38203,-0.42862 10.73964,11.10452 9.61953,11.14932 -3.68841,-0.63899 -5.35774,4.94077 -13.02146,-7.94216 z"
           id="path2328"
           sodipodi:nodetypes="cccsccc" />
      </g>
      <g
         id="g9896"
         style="fill:#9f3939;fill-opacity:1"
         transform="matrix(1.2827773,0,0,1.2827773,-18.954331,-7.6403615)">
        <path
           style="fill:#9f3939;fill-opacity:1;stroke-width:0.264583"
           d="m 115.99929,102.46676 13.11381,7.48042 7.29571,-3.32463 c -7.80043,0.77547 -14.03676,-1.83796 -20.40952,-4.15579 z"
           id="path2316"
           sodipodi:nodetypes="cccc" />
        <path
           style="fill:#9f3939;fill-opacity:1;stroke-width:0.264583"
           d="m 93.455304,99.693523 4.432834,-3.60168 c -3.626962,2.682273 2.338202,4.257767 4.432842,6.279847 -2.850671,-0.64178 -4.918621,0.59495 -8.865676,-2.678167 z"
           id="path2318"
           sodipodi:nodetypes="cccc" />
        <path
           style="fill:#9f3939;fill-opacity:1;stroke-width:0.264583"
           d="m 136.00653,107.31661 -7.57501,4.63644 c 1.00644,0.12163 0.0306,1.09993 6.26897,-0.52242 1.96441,-3.17842 1.05247,-2.9575 1.30604,-4.11402 z"
           id="path2322"
           sodipodi:nodetypes="cccc" />
        <path
           style="fill:#9f3939;fill-opacity:1;stroke-width:0.264583"
           d="m 97.888138,103.20285 6.002802,0.1847 4.43283,4.24814 z"
           id="path2324" />
        <path
           style="fill:#9f3939;fill-opacity:1;stroke-width:0.264583"
           d="m 98.626945,105.60397 18.008395,4.70989 -9.18175,-1.14299 z"
           id="path2326"
           sodipodi:nodetypes="cccc" />
        <path
           style="fill:#9f3939;fill-opacity:1;stroke-width:0.264583"
           d="m 137.06856,106.5073 3.91811,-3.72221 7.1832,-0.78362 z"
           id="path2330" />
        <path
           style="fill:#9f3939;fill-opacity:1;stroke-width:0.264583"
           d="m 137.00326,106.5726 0.1959,4.83234 0.57244,0.78894 6.61077,4.30461 c 1.28957,-3.31892 -2.79824,-5.96568 -6.24544,-8.69251 l 1.93551,3.20715 c -2.22117,0.87611 -2.65213,-1.76852 -3.06918,-4.44053 z"
           id="path2332"
           sodipodi:nodetypes="ccccccc" />
      </g>
      <path
         style="fill:#ffffff;fill-opacity:1;stroke-width:0.339401"
         d="m 128.02903,138.95968 -1.81243,1.06741 -0.0388,1.97216 2.05252,-1.4256 z"
         id="path2388" />
      <g
         id="g21155">
        <ellipse
           style="fill:#6f462a;fill-opacity:1;stroke-width:0.342995"
           id="path1454"
           cx="74.943665"
           cy="213.278"
           rx="23.309746"
           ry="24.797239"
           transform="matrix(0.97597613,-0.21787749,0.15889635,0.98729527,0,0)" />
        <path
           style="fill:#9c623a;fill-opacity:1;stroke-width:0.339401"
           d="m 103.42047,174.5595 c -6.251112,-5.71378 -20.476199,18.31879 -13.860453,23.93002 l 13.860463,-18.71755 z"
           id="path6883"
           sodipodi:nodetypes="cccc" />
        <path
           style="fill:#482d1b;fill-opacity:1;stroke-width:0.339401"
           d="m 126.16585,187.70916 c 0.12353,11.78984 -10.48581,22.06337 -19.78374,29.14249 4.99985,-1.5838 7.02621,2.76752 19.78373,-12.32039 4.07756,-8.64165 2.0871,-12.29022 1e-5,-16.8221 z"
           id="path7509"
           sodipodi:nodetypes="cccc" />
      </g>
      <path
         style="fill:#000000;fill-opacity:0;stroke:#e88865;stroke-width:0.924889;stroke-dasharray:none;stroke-opacity:1"
         d="m 119.03508,148.59918 c 0.0516,0.0208 0.15517,0.0626 -0.0235,0.80794 -0.17869,0.74534 -0.64036,2.19679 -1.82214,3.69126 -1.18179,1.49447 -3.07942,3.02794 -4.3677,2.61826 -1.28827,-0.40969 -1.96639,-2.76415 -2.17445,-4.78344 -0.20806,-2.01929 0.054,-3.70322 0.27606,-4.53511 0.22204,-0.83188 0.40419,-0.81175 0.27432,0.0277 -0.12987,0.83946 -0.5719,2.49807 -0.46125,4.4984 0.11066,2.00032 0.77375,4.34177 2.04807,4.74894 1.27433,0.40716 3.15899,-1.12022 4.29429,-2.62543 1.13529,-1.50521 1.52002,-2.98728 1.71238,-3.72832 0.19237,-0.74104 0.19234,-0.74105 0.24395,-0.72022 z"
         id="path61519"
         inkscape:path-effect="#path-effect61521"
         inkscape:original-d="m 118.98347,148.57835 c 0.10313,0.0419 0.20672,0.0836 0.31024,0.12519 -0.46106,1.44885 -0.92271,2.90031 -1.38442,4.35258 -1.90168,1.53671 -3.79931,3.07019 -5.69796,4.6045 -0.6782,-2.35358 -1.3563,-4.70805 -2.03419,-7.06281 0.26184,-1.68393 0.52391,-3.36787 0.7862,-5.05172 0.18183,0.0218 0.36402,0.0416 0.54652,0.0604 -0.44229,1.65873 -0.88434,3.31733 -1.32612,4.97584 0.663,2.34229 1.32609,4.68374 1.98972,7.0259 1.88531,-1.52794 3.76999,-3.0553 5.65585,-4.58364 0.38453,-1.48213 0.76925,-2.9642 1.15419,-4.44623 z"
         sodipodi:nodetypes="ccccccccccc" />
      <path
         style="fill:#000000;fill-opacity:1;stroke:#e88865;stroke-width:0;stroke-dasharray:none;stroke-opacity:1"
         d="m 148.46064,172.679 c 3.51441,0.57488 10.96032,2.4103 15.78,7.4374 4.81967,5.0271 7.01268,13.24542 7.51104,17.23419 0.49836,3.98877 -0.69758,3.748 -2.21438,-0.018 -1.5168,-3.76597 -3.3547,-11.05702 -7.36801,-15.62087 -4.01332,-4.56386 -10.20147,-6.40017 -13.50388,-7.66111 -3.30241,-1.26095 -3.71919,-1.94652 -0.20477,-1.37163 z"
         id="path61631"
         inkscape:path-effect="#path-effect61633"
         inkscape:original-d="m 144.52944,171.41854 c 7.44555,1.8356 14.89146,3.67102 22.33775,5.50625 2.19272,8.21882 4.38574,16.43713 6.57916,24.65542 -1.19636,-0.2406 -2.3923,-0.48138 -3.5879,-0.72234 -1.83832,-7.29114 -3.67623,-14.58218 -5.5138,-21.87353 -6.18876,-1.8362 -12.37691,-3.6725 -18.56484,-5.50903 -0.41715,-0.68542 -0.83393,-1.37099 -1.25037,-2.05677 z" />
      <path
         style="fill:#000000;fill-opacity:1;stroke:#e88865;stroke-width:0;stroke-dasharray:none;stroke-opacity:1"
         d="m 134.64032,230.21027 c 1.03406,3.29186 2.73421,10.37558 5.00509,15.84799 2.27088,5.47241 5.1123,9.33342 6.1949,11.80492 1.08259,2.4715 0.40657,3.5534 -1.48779,1.64309 -1.89435,-1.9103 -5.00712,-6.81271 -7.12389,-12.57607 -2.11676,-5.76335 -3.2373,-12.38732 -3.61374,-15.94951 -0.37644,-3.56218 -0.009,-4.06228 1.02543,-0.77042 z"
         id="path62130"
         inkscape:path-effect="#path-effect62132"
         inkscape:original-d="m 133.97418,226.41816 c 1.70022,7.08397 3.40037,14.16769 5.10043,21.25115 2.84161,3.86142 5.68303,7.72242 8.52444,11.58326 -0.67597,1.08222 -1.35199,2.16412 -2.02812,3.2458 -3.11281,-4.90237 -6.22558,-9.80478 -9.33852,-14.70756 -1.1205,-6.62397 -2.24104,-13.24794 -3.36169,-19.8723 0.36792,-0.49986 0.73571,-0.99997 1.10346,-1.50035 z" />
      <ellipse
         style="fill:#000000;fill-opacity:0.417582;stroke:#e88865;stroke-width:0;stroke-dasharray:none;stroke-opacity:1"
         id="path62917"
         cx="-168.61421"
         cy="218.48511"
         transform="matrix(-0.96895845,-0.24722362,-0.24722361,0.96895845,0,0)"
         rx="56.874958"
         ry="8.9802551" />
    </g>
  </g>
</svg>
