<?xml version="1.0" encoding="UTF-8" standalone="no"?>
<!-- Created with Inkscape (http://www.inkscape.org/) -->

<svg
   width="210mm"
   height="297mm"
   viewBox="0 0 210 297"
   version="1.1"
   id="svg5"
   sodipodi:docname="desenho.svg"
   inkscape:version="1.2.2 (732a01da63, 2022-12-09)"
   xmlns:inkscape="http://www.inkscape.org/namespaces/inkscape"
   xmlns:sodipodi="http://sodipodi.sourceforge.net/DTD/sodipodi-0.dtd"
   xmlns="http://www.w3.org/2000/svg"
   xmlns:svg="http://www.w3.org/2000/svg">
  <sodipodi:namedview
     id="namedview7"
     pagecolor="#505050"
     bordercolor="#eeeeee"
     borderopacity="1"
     inkscape:showpageshadow="0"
     inkscape:pageopacity="0"
     inkscape:pagecheckerboard="0"
     inkscape:deskcolor="#505050"
     inkscape:document-units="mm"
     showgrid="false"
     inkscape:zoom="0.71624579"
     inkscape:cx="219.89658"
     inkscape:cy="640.14338"
     inkscape:window-width="1920"
     inkscape:window-height="991"
     inkscape:window-x="-9"
     inkscape:window-y="-9"
     inkscape:window-maximized="1"
     inkscape:current-layer="g21182" />
  <defs
     id="defs2">
    <inkscape:path-effect
       effect="bspline"
       id="path-effect6879"
       is_visible="true"
       lpeversion="1"
       weight="33.333333"
       steps="2"
       helper_size="0"
       apply_no_weight="true"
       apply_with_weight="true"
       only_selected="false" />
    <inkscape:path-effect
       effect="bspline"
       id="path-effect5458"
       is_visible="true"
       lpeversion="1"
       weight="33.333333"
       steps="2"
       helper_size="0"
       apply_no_weight="true"
       apply_with_weight="true"
       only_selected="false" />
    <inkscape:path-effect
       effect="bspline"
       id="path-effect5454"
       is_visible="true"
       lpeversion="1"
       weight="33.333333"
       steps="2"
       helper_size="0"
       apply_no_weight="true"
       apply_with_weight="true"
       only_selected="false" />
    <inkscape:path-effect
       effect="bspline"
       id="path-effect5450"
       is_visible="true"
       lpeversion="1"
       weight="33.333333"
       steps="2"
       helper_size="0"
       apply_no_weight="true"
       apply_with_weight="true"
       only_selected="false" />
    <inkscape:path-effect
       effect="spiro"
       id="path-effect1514"
       is_visible="true"
       lpeversion="1" />
    <inkscape:path-effect
       effect="spiro"
       id="path-effect792"
       is_visible="true"
       lpeversion="1" />
    <inkscape:path-effect
       effect="bspline"
       id="path-effect465"
       is_visible="true"
       lpeversion="1"
       weight="33.333333"
       steps="2"
       helper_size="0"
       apply_no_weight="true"
       apply_with_weight="true"
       only_selected="false" />
  </defs>
  <g
     inkscape:label="Camada 1"
     inkscape:groupmode="layer"
     id="layer1">
    <g
       id="g21182">
      <path
         style="fill:#000000;fill-opacity:1;stroke-width:0.339401"
         d="m 71.119104,147.62852 c 1.026649,3.79113 3.869822,11.21497 8.193936,14.57126 4.324114,3.35629 10.128801,2.64551 12.873162,1.77697 2.744362,-0.86854 2.428461,-1.89521 -0.138266,-1.95466 -2.566727,-0.0595 -7.384225,0.84876 -11.155451,-2.07322 -3.771226,-2.92198 -6.495877,-9.67438 -8.253077,-12.9719 -1.7572,-3.29753 -2.546953,-3.13958 -1.520304,0.65155 z"
         id="path6877"
         inkscape:path-effect="#path-effect6879"
         inkscape:original-d="m 69.302425,143.9954 c 2.843508,7.42418 5.686682,14.84802 8.529512,22.27151 5.805263,-0.71047 11.609951,-1.42124 17.414421,-2.13238 -0.31558,-1.02639 -0.63148,-2.05306 -0.94773,-3.0801 -4.817346,0.90859 -9.634844,1.81681 -14.452778,2.72471 -2.72442,-6.75232 -5.44907,-13.50472 -8.174115,-20.2576 -0.789448,0.1583 -1.579201,0.31625 -2.36931,0.47386 z" />
      <path
         style="fill:#008000;fill-opacity:1;stroke-width:0.303582"
         d="m 150.29711,119.86558 c -4.84022,-5.59478 -12.20415,-8.91714 -19.60171,-8.84364 -7.39756,0.0735 -14.69402,3.54151 -19.42213,9.23136 -3.88943,4.68058 -5.995,10.62513 -7.0365,16.62102 -1.52427,8.77517 -0.96911,18.03442 -4.355912,26.27193 -2.194127,5.33664 -5.905421,9.87972 -9.409199,14.4642 -3.503778,4.58447 -6.917101,9.43525 -8.34956,15.0247 -1.090624,4.25561 -0.965009,8.79375 0.194921,13.031 1.159929,4.23724 3.337514,8.17286 6.181348,11.52133 5.687667,6.69694 13.898202,10.92002 22.439822,12.97898 9.34165,2.25181 19.48101,2.0092 28.23599,-1.9515 4.3775,-1.98035 8.36014,-4.87302 11.46609,-8.53872 3.10594,-3.6657 5.31882,-8.1102 6.20262,-12.83282 1.19818,-6.40255 -0.0451,-12.9911 -1.50542,-19.339 -1.46031,-6.34789 -3.15259,-12.75794 -2.85049,-19.26463 0.37665,-8.11221 3.83069,-15.80538 4.56905,-23.8927 0.78664,-8.61606 -1.66316,-17.48948 -6.75892,-24.48151 z"
         id="path1510"
         inkscape:path-effect="#path-effect1514"
         inkscape:original-d="m 150.29711,119.86558 c 12.39727,-8.0427 -30.9818,-0.50561 -39.02384,0.38772 -8.04204,0.89334 -2.68024,9.47247 -7.0365,16.62102 -4.356262,7.14856 -3.01529,18.14041 -4.355912,26.27193 -1.34063,8.13152 -11.615461,23.23395 -17.758759,29.4889 -6.14331,6.25493 19.211071,20.37442 28.816091,37.53131 9.60503,17.1569 29.1515,-11.79528 45.9047,-23.32304 16.7532,-11.52775 -11.29706,-29.13873 -4.35591,-38.60363 7.92968,-10.81286 32.51225,-26.39178 4.56905,-23.8927 -11.30359,1.01096 -0.61562,-15.63457 -6.75892,-24.48151 z"
         sodipodi:nodetypes="cssssssssc" />
      <path
         style="fill:#dcff9c;fill-opacity:1;stroke-width:0.303173"
         d="m 140.22118,119.79285 c -4.08319,-4.61751 -9.92048,-7.64455 -16.04711,-8.32154 -6.12663,-0.67698 -12.48399,1.00256 -17.47682,4.61719 -6.53894,4.73395 -10.458295,12.44243 -12.062552,20.35409 -1.764692,8.70287 -1.043542,17.96203 -4.355923,26.2011 -2.148087,5.34306 -5.853312,9.88293 -9.362615,14.44881 -3.509302,4.56589 -6.943472,9.38812 -8.396141,14.96058 -1.10778,4.24946 -0.99349,8.78791 0.161479,13.02478 1.15497,4.23688 3.333661,8.17136 6.181529,11.51421 5.695737,6.68572 13.923887,10.87831 22.473083,12.89114 9.31935,2.19415 19.41185,1.89442 28.13243,-2.0573 4.36028,-1.97587 8.33152,-4.84748 11.44905,-8.48027 3.11753,-3.63279 5.36626,-8.03213 6.32323,-12.72258 1.29896,-6.36666 0.21267,-12.96493 -1.19623,-19.30817 -1.4089,-6.34323 -3.14949,-12.69358 -3.15969,-19.19139 -0.0142,-9.05747 3.33741,-17.85561 3.44187,-26.91248 0.0854,-7.40153 -2.06798,-14.81433 -6.10559,-21.01817 z"
         id="path790"
         inkscape:path-effect="#path-effect792"
         inkscape:original-d="m 140.22118,119.79285 c -9.6322,-3.57292 -25.48189,-4.59527 -33.52393,-3.70435 -8.042042,0.89093 -7.706292,13.2248 -12.062552,20.35409 -4.356262,7.12928 -3.015302,18.0915 -4.355923,26.2011 -1.340623,8.10959 -11.615453,23.17131 -17.758756,29.40939 -6.143306,6.23807 19.211069,20.3195 28.816091,37.43013 9.60503,17.11066 29.15151,-11.76346 45.90471,-23.26015 16.7532,-11.49667 -11.29706,-29.06018 -4.35592,-38.49956 7.92968,-10.78372 31.38507,-29.40484 3.44187,-26.91248 -11.30357,1.00823 -1.26542,-10.77413 -6.10559,-21.01817 z"
         sodipodi:nodetypes="cssssssssc" />
      <ellipse
         style="fill:#000000;fill-opacity:1;stroke-width:0.339401"
         id="ellipse1742"
         cx="143.84433"
         cy="120.50283"
         rx="2.0731452"
         ry="4.501687"
         transform="rotate(8.4879374)" />
      <path
         style="fill:#000000;fill-opacity:1;stroke-width:0.339401"
         d="m 95.032598,132.88 c 7.095122,0.92152 14.355832,0.58263 21.682052,0.1799 2.80729,-0.18909 25.56001,-0.15227 37.73021,-6.96509 l 1.02845,2.36634 c -4.11722,2.69271 -6.98397,2.99921 -9.90784,3.41364 l -31.60387,2.8573 c -7.34126,16.01479 -15.995052,11.82444 -17.718112,0.25902 l -1.28249,-0.5098 z"
         id="path1928"
         sodipodi:nodetypes="ccccccccc" />
      <g
         id="g9900"
         style="fill:#c86464;fill-opacity:1"
         transform="matrix(1.2827773,0,0,1.2827773,-18.954331,-7.6403615)">
        <path
           style="fill:#c86464;fill-opacity:1;stroke-width:0.264583"
           d="m 89.576571,105.41927 c 17.467879,7.57386 29.532849,6.05791 36.799619,8.3359 6.80296,0.69447 10.13408,-0.12197 11.40747,-3.99541 -2.70283,-24.987213 -31.8708,-24.925757 -39.871841,-15.750608 -4.379822,5.022536 -9.179464,6.855848 -8.335248,11.410118 z"
           id="path1990"
           sodipodi:nodetypes="cccsc" />
        <path
           style="fill:#c86464;fill-opacity:1;stroke-width:0.264583"
           d="m 136.6484,107.29797 3.60168,-6.1875 c 4.81051,-1.920656 9.08732,-1.573073 13.20616,-0.5541 -5.9887,5.25324 -18.0099,7.25785 -13.40591,6.67437 3.38203,-0.42862 10.73964,11.10452 9.61953,11.14932 -3.68841,-0.63899 -5.35774,4.94077 -13.02146,-7.94216 z"
           id="path2328"
           sodipodi:nodetypes="cccsccc" />
      </g>
      <g
         id="g9896"
         style="fill:#9f3939;fill-opacity:1"
         transform="matrix(1.2827773,0,0,1.2827773,-18.954331,-7.6403615)">
        <path
           style="fill:#9f3939;fill-opacity:1;stroke-width:0.264583"
           d="m 115.99929,102.46676 13.11381,7.48042 7.29571,-3.32463 c -7.80043,0.77547 -14.03676,-1.83796 -20.40952,-4.15579 z"
           id="path2316"
           sodipodi:nodetypes="cccc" />
        <path
           style="fill:#9f3939;fill-opacity:1;stroke-width:0.264583"
           d="m 93.455304,99.693523 4.432834,-3.60168 c -3.626962,2.682273 2.338202,4.257767 4.432842,6.279847 -2.850671,-0.64178 -4.918621,0.59495 -8.865676,-2.678167 z"
           id="path2318"
           sodipodi:nodetypes="cccc" />
        <path
           style="fill:#9f3939;fill-opacity:1;stroke-width:0.264583"
           d="m 136.00653,107.31661 -7.57501,4.63644 c 1.00644,0.12163 0.0306,1.09993 6.26897,-0.52242 1.96441,-3.17842 1.05247,-2.9575 1.30604,-4.11402 z"
           id="path2322"
           sodipodi:nodetypes="cccc" />
        <path
           style="fill:#9f3939;fill-opacity:1;stroke-width:0.264583"
           d="m 97.888138,103.20285 6.002802,0.1847 4.43283,4.24814 z"
           id="path2324" />
        <path
           style="fill:#9f3939;fill-opacity:1;stroke-width:0.264583"
           d="m 98.626945,105.60397 18.008395,4.70989 -9.32743,-0.27705 z"
           id="path2326" />
        <path
           style="fill:#9f3939;fill-opacity:1;stroke-width:0.264583"
           d="m 137.06856,106.5073 3.91811,-3.72221 7.1832,-0.78362 z"
           id="path2330" />
        <path
           style="fill:#9f3939;fill-opacity:1;stroke-width:0.264583"
           d="m 137.00326,106.5726 0.1959,4.83234 0.57244,0.78894 6.61077,4.30461 c 1.28957,-3.31892 -2.79824,-5.96568 -6.24544,-8.69251 l 1.93551,3.20715 c -2.22117,0.87611 -2.65213,-1.76852 -3.06918,-4.44053 z"
           id="path2332"
           sodipodi:nodetypes="ccccccc" />
      </g>
      <path
         style="fill:#ffffff;fill-opacity:1;stroke-width:0.339401"
         d="m 125.04238,136.7333 -1.71724,1.21464 0.12558,1.96854 1.92666,-1.59158 z"
         id="path2388" />
      <path
         style="fill:#e88865;fill-opacity:1;stroke-width:0.339401"
         d="m 109.88052,147.50245 c 2.49631,1.95282 4.94591,1.61702 7.39283,1.15005 -3.65302,14.46582 -8.63938,10.25831 -7.39283,-1.15005 z"
         id="path2498"
         sodipodi:nodetypes="ccc" />
      <path
         style="fill:#000000;fill-opacity:1;stroke-width:0.339401"
         d="m 73.015303,215.06986 c -2.688529,2.14095 -7.416866,7.13244 -9.28222,13.37654 -1.865354,6.24411 -0.867837,13.74016 0.01174,17.3167 0.879573,3.57655 1.634328,3.23692 1.504691,-0.41156 -0.129636,-3.64848 -1.147312,-10.60732 0.663241,-16.32622 1.810553,-5.7189 6.449011,-10.19857 8.444241,-12.7929 1.995229,-2.59432 1.346839,-3.30352 -1.341689,-1.16256 z"
         id="path5448"
         inkscape:path-effect="#path-effect5450"
         inkscape:original-d="m 75.055111,212.21933 c -4.727992,4.99181 -9.456323,9.9833 -14.184991,14.97443 0.997895,7.49671 1.995413,14.99276 2.992612,22.48862 0.758484,-0.34979 1.516598,-0.68195 2.274387,-1.02343 -1.007194,-6.95736 -2.034637,-13.91477 -3.052465,-20.87266 4.638984,-4.47952 9.277441,-8.9592 13.915655,-13.43931 -0.648073,-0.70889 -1.296459,-1.4181 -1.945198,-2.12765 z" />
      <path
         style="fill:#000000;fill-opacity:1;stroke-width:0.339401"
         d="m 152.40939,166.51064 c 3.55644,0.50713 10.57911,2.35649 16.71882,1.02772 6.13971,-1.32878 11.39664,-5.83538 14.4842,-7.73396 3.08756,-1.89858 4.00528,-1.18937 1.78775,1.51079 -2.21753,2.70017 -7.57865,7.3992 -14.22993,8.78887 -6.65128,1.38968 -14.56598,-0.51874 -18.48652,-1.89221 -3.92054,-1.37347 -3.83076,-2.20834 -0.27432,-1.70121 z"
         id="path5452"
         inkscape:path-effect="#path-effect5454"
         inkscape:original-d="m 148.94277,165.1683 c 7.023,1.84971 14.04567,3.69906 21.068,5.54809 5.25746,-4.50645 10.51439,-9.01305 15.77108,-13.52009 0.91808,0.70957 1.83581,1.41877 2.7532,2.12765 -5.35655,4.68669 -10.71322,9.3908 -16.07034,14.08569 -7.94023,-1.93884 -15.86052,-3.82407 -23.79129,-5.73662 0.0902,-0.83459 0.1799,-1.66947 0.26935,-2.50472 z" />
      <path
         style="fill:#000000;fill-opacity:1;stroke-width:0.339401"
         d="m 136.01989,229.26775 c 1.34168,3.31293 4.84303,9.72284 4.72814,15.69725 -0.11488,5.97441 -3.8456,11.51341 -5.20885,14.39031 -1.36325,2.8769 -0.35208,3.09314 2.15108,0.29177 2.50315,-2.80138 6.46427,-8.56414 6.48037,-14.76064 0.0161,-6.1965 -3.91618,-12.7726 -6.29532,-15.95984 -2.37914,-3.18724 -3.19711,-2.97178 -1.85542,0.34115 z"
         id="path5456"
         inkscape:path-effect="#path-effect5458"
         inkscape:original-d="m 133.85999,226.17034 c 3.5017,6.41027 7.00305,12.82019 10.50407,19.22978 -3.73052,5.53956 -7.46125,11.07855 -11.19237,16.61733 1.00786,0.19784 2.01536,0.43125 3.02254,0.64638 4.00055,-5.81719 7.96069,-11.58062 11.94053,-17.37144 -3.94003,-6.60723 -7.88022,-13.17861 -11.82083,-19.76843 -0.81766,0.2158 -1.63562,0.43126 -2.45394,0.64638 z" />
      <g
         id="g21155">
        <ellipse
           style="fill:#6f462a;fill-opacity:1;stroke-width:0.342995"
           id="path1454"
           cx="74.943665"
           cy="213.278"
           rx="23.309746"
           ry="24.797239"
           transform="matrix(0.97597613,-0.21787749,0.15889635,0.98729527,0,0)" />
        <path
           style="fill:#9c623a;fill-opacity:1;stroke-width:0.339401"
           d="m 103.42047,174.5595 c -6.251112,-5.71378 -20.476199,18.31879 -13.860453,23.93002 l 13.860463,-18.71755 z"
           id="path6883"
           sodipodi:nodetypes="cccc" />
        <path
           style="fill:#482d1b;fill-opacity:1;stroke-width:0.339401"
           d="m 126.16585,187.70916 c 0.12353,11.78984 -10.48581,22.06337 -19.78374,29.14249 4.99985,-1.5838 7.02621,2.76752 19.78373,-12.32039 4.07756,-8.64165 2.0871,-12.29022 1e-5,-16.8221 z"
           id="path7509"
           sodipodi:nodetypes="cccc" />
      </g>
    </g>
    <g
       id="g21205">
      <g
         id="g9887"
         style="fill:#999999"
         transform="matrix(1.2827773,0,0,1.2827773,-18.954331,-7.6403615)">
        <rect
           style="fill:#999999;fill-opacity:1;stroke-width:0.264583"
           id="rect5460"
           width="9.5794182"
           height="112.28105"
           x="86.563553"
           y="66.892548"
           transform="rotate(12.478879)"
           ry="4.709888" />
        <path
           style="fill:#999999;fill-opacity:1;stroke-width:0.247947"
           id="path5572"
           sodipodi:type="arc"
           sodipodi:cx="92.105545"
           sodipodi:cy="38.073952"
           sodipodi:rx="17.378113"
           sodipodi:ry="36.122585"
           sodipodi:start="0"
           sodipodi:end="3.1415927"
           sodipodi:arc-type="slice"
           d="m 109.48366,38.073952 a 17.378113,36.122585 0 0 1 -8.68906,31.283077 17.378113,36.122585 0 0 1 -17.378112,-10e-7 17.378113,36.122585 0 0 1 -8.689056,-31.283076 h 17.378113 z"
           transform="matrix(0.95391876,0.30006498,-0.20539842,0.97867844,0,0)" />
        <rect
           style="fill:#999999;fill-opacity:1;stroke-width:0.232066"
           id="rect6464"
           width="6.7772126"
           height="38.200089"
           x="-108.14074"
           y="-53.601357"
           transform="rotate(-169.20015)"
           ry="3.3886063" />
        <rect
           style="fill:#999999;fill-opacity:1;stroke-width:0.232066"
           id="rect6466"
           width="6.7772126"
           height="38.200089"
           x="-98.797516"
           y="-52.426292"
           transform="rotate(-169.20015)"
           ry="3.3886063" />
        <rect
           style="fill:#999999;fill-opacity:1;stroke-width:0.232066"
           id="rect6468"
           width="6.7772126"
           height="38.200089"
           x="-89.352211"
           y="-51.497677"
           transform="rotate(-169.20015)"
           ry="3.3886063" />
        <rect
           style="fill:#999999;fill-opacity:1;stroke-width:0.232066"
           id="rect6470"
           width="6.7772126"
           height="38.200089"
           x="-80.365189"
           y="-51.084675"
           transform="rotate(-169.20015)"
           ry="3.3886063" />
      </g>
      <g
         id="g9974">
        <path
           style="fill:#808080;fill-opacity:1;stroke-width:0.339401"
           d="m 70.464008,105.18387 c -1.376925,-0.84977 -1.996468,0.78956 -1.504219,2.37795 1.969624,6.35557 4.774808,7.96617 8.313068,8.86812 9.078147,1.2815 11.918615,-4.47847 15.737701,-10.87765 0.513957,-0.86118 5.89059,-21.333563 4.18551,-18.927055 -15.705013,18.353635 -20.81214,27.907365 -26.73206,18.558635 z"
           id="path9956"
           sodipodi:nodetypes="cscscc" />
        <path
           style="fill:#808080;fill-opacity:1;stroke-width:0.339401"
           d="m 73.022624,28.714828 c 1.466146,1.535236 2.579127,3.918068 2.931871,8.125468 1.319094,-0.740444 1.330479,-3.174859 1.088982,-7.036485 -1.577806,-2.166341 -2.66562,-1.816099 -4.020853,-1.088983 z"
           id="path9958"
           sodipodi:nodetypes="cccc" />
        <path
           style="fill:#808080;fill-opacity:1;stroke-width:0.339401"
           d="m 84.331266,31.311627 c 1.466145,1.535237 2.579127,3.918069 2.931871,8.125468 1.319094,-0.740443 1.330479,-3.174858 1.088982,-7.036485 -1.577806,-2.16634 -2.66562,-1.816099 -4.020853,-1.088983 z"
           id="path9960"
           sodipodi:nodetypes="cccc" />
        <path
           style="fill:#808080;fill-opacity:1;stroke-width:0.339401"
           d="m 95.472368,34.662336 c 1.46615,1.535237 2.57913,3.918069 2.93188,8.125469 1.31909,-0.740444 1.33047,-3.174859 1.08898,-7.036486 -1.57781,-2.16634 -2.66562,-1.816098 -4.02086,-1.088983 z"
           id="path9962"
           sodipodi:nodetypes="cccc" />
        <path
           style="fill:#808080;fill-opacity:1;stroke-width:0.339401"
           d="m 107.61869,38.683188 c 1.46615,1.535237 2.57913,3.918069 2.93187,8.125468 1.3191,-0.740443 1.33049,-3.174859 1.08899,-7.036485 -1.57782,-2.166341 -2.66562,-1.816099 -4.02086,-1.088983 z"
           id="path9964"
           sodipodi:nodetypes="cccc" />
        <path
           style="fill:#808080;fill-opacity:1;stroke-width:0.339401"
           d="m 45.776389,239.38849 c 1.989835,-0.73967 4.032649,-2.39601 6.189521,-6.0257 0.862573,1.24267 -0.191605,3.43704 -2.097242,6.80439 -2.366192,1.25841 -3.191379,0.46779 -4.092279,-0.77869 z"
           id="path9966"
           sodipodi:nodetypes="cccc" />
      </g>
    </g>
  </g>
</svg>
